HIERARCHY
ROOT Hips
{
  OFFSET 5.80788e-005 67.184 3.4734
  CHANNELS 6 Xposition Yposition Zposition Zrotation Xrotation Yrotation
  JOINT Chest
  {
    OFFSET 0 8.7983 -4.7612
    CHANNELS 3 Zrotation Xrotation Yrotation
    JOINT Chest2
    {
      OFFSET 0 8.0291 0.4195
      CHANNELS 3 Zrotation Xrotation Yrotation
      JOINT Chest3
      {
        OFFSET 0 9.9351 -2.2114
        CHANNELS 3 Zrotation Xrotation Yrotation
        JOINT Neck
        {
          OFFSET 0 22.3885 -0.4656
          CHANNELS 3 Zrotation Xrotation Yrotation
          JOINT Head
          {
            OFFSET -0.0001 12.643 3.4389
            CHANNELS 3 Zrotation Xrotation Yrotation
            End Site
            {
              OFFSET 0.0001 17.6655 0.5274
            }
          }
        }
        JOINT LeftCollar
        {
          OFFSET 2.2603 21.606 7.4023
          CHANNELS 3 Zrotation Xrotation Yrotation
          JOINT LeftShoulder
          {
            OFFSET 13.5163 -1.1332 -5.0146
            CHANNELS 3 Zrotation Xrotation Yrotation
            JOINT LeftElbow
            {
              OFFSET -0.0995 -28.05 -0.2431
              CHANNELS 3 Zrotation Xrotation Yrotation
              JOINT LeftWrist
              {
                OFFSET 0.0679 -23.3996 -0.1402
                CHANNELS 3 Zrotation Xrotation Yrotation
                JOINT LeftFinger1
                {
                  OFFSET 0.7932 -9.069 2.5189
                  CHANNELS 3 Zrotation Xrotation Yrotation
                  JOINT LeftFinger11
                  {
                    OFFSET -0.8272 -3.3923 0.5977
                    CHANNELS 3 Zrotation Xrotation Yrotation
                    JOINT LeftFinger12
                    {
                      OFFSET -0.5649 -2.3158 0.4082
                      CHANNELS 3 Zrotation Xrotation Yrotation
                      End Site
                      {
                        OFFSET -0.4919 -1.6479 0.2673
                      }
                    }
                  }
                }
                JOINT LeftFinger2
                {
                  OFFSET 0.9159 -9.2044 0.2193
                  CHANNELS 3 Zrotation Xrotation Yrotation
                  JOINT LeftFinger21
                  {
                    OFFSET 0.0117 -4.1944 -0.0248
                    CHANNELS 3 Zrotation Xrotation Yrotation
                    JOINT LeftFinger22
                    {
                      OFFSET 0.0071 -2.3249 -0.0142
                      CHANNELS 3 Zrotation Xrotation Yrotation
                      End Site
                      {
                        OFFSET -0.1475 -2.0882 0.0028
                      }
                    }
                  }
                }
                JOINT LeftFinger3
                {
                  OFFSET 0.6113 -8.7231 -2.0637
                  CHANNELS 3 Zrotation Xrotation Yrotation
                  JOINT LeftFinger31
                  {
                    OFFSET -0.1927 -3.8059 -0.2383
                    CHANNELS 3 Zrotation Xrotation Yrotation
                    JOINT LeftFinger32
                    {
                      OFFSET -0.1091 -2.1688 -0.1362
                      CHANNELS 3 Zrotation Xrotation Yrotation
                      End Site
                      {
                        OFFSET -0.2358 -1.9176 -0.0906
                      }
                    }
                  }
                }
                JOINT LeftFinger4
                {
                  OFFSET -0.6151 -8.0947 -3.5641
                  CHANNELS 3 Zrotation Xrotation Yrotation
                  JOINT LeftFinger41
                  {
                    OFFSET -0.4882 -2.341 -0.6462
                    CHANNELS 3 Zrotation Xrotation Yrotation
                    JOINT LeftFinger42
                    {
                      OFFSET -0.3575 -1.7167 -0.4742
                      CHANNELS 3 Zrotation Xrotation Yrotation
                      End Site
                      {
                        OFFSET -0.4187 -1.5237 -0.3496
                      }
                    }
                  }
                }
                JOINT LeftFinger0
                {
                  OFFSET -1.42 -1.8761 1.4223
                  CHANNELS 3 Zrotation Xrotation Yrotation
                  JOINT LeftFinger01
                  {
                    OFFSET -1.1471 -3.4929 2.6334
                    CHANNELS 3 Zrotation Xrotation Yrotation
                    JOINT LeftFinger02
                    {
                      OFFSET -0.823 -2.3 1.6571
                      CHANNELS 3 Zrotation Xrotation Yrotation
                      End Site
                      {
                        OFFSET -0.5822 -1.6914 1.1582
                      }
                    }
                  }
                }
              }
            }
          }
        }
        JOINT RightCollar
        {
          OFFSET -2.2603 21.606 7.4023
          CHANNELS 3 Zrotation Xrotation Yrotation
          JOINT RightShoulder
          {
            OFFSET -13.5187 -1.1334 -5.0155
            CHANNELS 3 Zrotation Xrotation Yrotation
            JOINT RightElbow
            {
              OFFSET 0.0994 -28.0499 -0.2431
              CHANNELS 3 Zrotation Xrotation Yrotation
              JOINT RightWrist
              {
                OFFSET -0.0679 -23.3996 -0.1402
                CHANNELS 3 Zrotation Xrotation Yrotation
                JOINT RightFinger1
                {
                  OFFSET -0.7932 -9.0691 2.5189
                  CHANNELS 3 Zrotation Xrotation Yrotation
                  JOINT RightFinger11
                  {
                    OFFSET 0.8272 -3.3923 0.5977
                    CHANNELS 3 Zrotation Xrotation Yrotation
                    JOINT RightFinger12
                    {
                      OFFSET 0.565 -2.3158 0.4082
                      CHANNELS 3 Zrotation Xrotation Yrotation
                      End Site
                      {
                        OFFSET 0.4919 -1.6479 0.2673
                      }
                    }
                  }
                }
                JOINT RightFinger2
                {
                  OFFSET -0.916 -9.2044 0.2193
                  CHANNELS 3 Zrotation Xrotation Yrotation
                  JOINT RightFinger21
                  {
                    OFFSET -0.0117 -4.1944 -0.0248
                    CHANNELS 3 Zrotation Xrotation Yrotation
                    JOINT RightFinger22
                    {
                      OFFSET -0.0071 -2.3249 -0.0142
                      CHANNELS 3 Zrotation Xrotation Yrotation
                      End Site
                      {
                        OFFSET 0.1475 -2.0882 0.0028
                      }
                    }
                  }
                }
                JOINT RightFinger3
                {
                  OFFSET -0.6113 -8.7231 -2.0637
                  CHANNELS 3 Zrotation Xrotation Yrotation
                  JOINT RightFinger31
                  {
                    OFFSET 0.1927 -3.8059 -0.2383
                    CHANNELS 3 Zrotation Xrotation Yrotation
                    JOINT RightFinger32
                    {
                      OFFSET 0.1091 -2.1688 -0.1362
                      CHANNELS 3 Zrotation Xrotation Yrotation
                      End Site
                      {
                        OFFSET 0.2358 -1.9176 -0.0906
                      }
                    }
                  }
                }
                JOINT RightFinger4
                {
                  OFFSET 0.6151 -8.0947 -3.564
                  CHANNELS 3 Zrotation Xrotation Yrotation
                  JOINT RightFinger41
                  {
                    OFFSET 0.4882 -2.341 -0.6462
                    CHANNELS 3 Zrotation Xrotation Yrotation
                    JOINT RightFinger42
                    {
                      OFFSET 0.3574 -1.7166 -0.4742
                      CHANNELS 3 Zrotation Xrotation Yrotation
                      End Site
                      {
                        OFFSET 0.4187 -1.5237 -0.3496
                      }
                    }
                  }
                }
                JOINT RightFinger0
                {
                  OFFSET 1.4199 -1.8761 1.4221
                  CHANNELS 3 Zrotation Xrotation Yrotation
                  JOINT RightFinger01
                  {
                    OFFSET 1.1472 -3.4929 2.6336
                    CHANNELS 3 Zrotation Xrotation Yrotation
                    JOINT RightFinger02
                    {
                      OFFSET 0.8229 -2.3 1.6571
                      CHANNELS 3 Zrotation Xrotation Yrotation
                      End Site
                      {
                        OFFSET 0.5822 -1.6914 1.1582
                      }
                    }
                  }
                }
              }
            }
          }
        }
      }
    }
  }
  JOINT RightHip
  {
    OFFSET -9.412 3.9771 -0.7758
    CHANNELS 3 Zrotation Xrotation Yrotation
    JOINT RightKnee
    {
      OFFSET -0.7531 -40.938 0
      CHANNELS 3 Zrotation Xrotation Yrotation
      JOINT RightAnkle
      {
        OFFSET 0 -40.1986 0
        CHANNELS 3 Zrotation Xrotation Yrotation
        JOINT RightToe
        {
          OFFSET 0 -4.4182 9.239
          CHANNELS 3 Zrotation Xrotation Yrotation
          End Site
          {
            OFFSET 0 0 6.1981
          }
        }
      }
    }
  }
  JOINT LeftHip
  {
    OFFSET 9.4119 3.9773 -0.7758
    CHANNELS 3 Zrotation Xrotation Yrotation
    JOINT LeftKnee
    {
      OFFSET 0.7532 -40.9383 0
      CHANNELS 3 Zrotation Xrotation Yrotation
      JOINT LeftAnkle
      {
        OFFSET 0 -40.1986 0
        CHANNELS 3 Zrotation Xrotation Yrotation
        JOINT LeftToe
        {
          OFFSET 0 -4.4182 9.239
          CHANNELS 3 Zrotation Xrotation Yrotation
          End Site
          {
            OFFSET 0 0 6.1981
          }
        }
      }
    }
  }
}
MOTION
Frames:	5
Frame Time:	0.0333333
5.80788e-005 67.184 3.4734 0 0 -0 0 0 -0 0 0 -0 0 0 -0 0 0 -0 0 0 -0 0 0 -12.5014 88.1196 14.2451 10.6914 -0.00160068 -0.00239207 0.000740045 -8.4365e-005 7.00714e-005 -9.52055e-007 9.93923e-017 -1.98785e-016 -1.59028e-015 9.93923e-017 -5.96354e-016 -1.59028e-015 -9.93923e-017 -5.96354e-016 -1.59028e-015 9.93923e-017 -1.98785e-016 -1.59028e-015 -0.0128176 0.00232552 8.52707e-005 9.93923e-017 5.96354e-016 -0 9.93923e-017 -1.98785e-016 -1.59028e-015 -0.0160551 0.00299681 0.000857156 -2.48481e-016 0 3.18055e-015 9.93923e-017 -1.98785e-016 -1.59028e-015 -0.0125865 0.0031206 0.00282719 0 1.98785e-016 -0 9.93923e-017 -1.98785e-016 -1.59028e-015 9.93923e-017 -5.96354e-016 -1.59028e-015 -9.93923e-017 -5.96354e-016 -1.59028e-015 -0.865644 0.16582 7.03859 -88.0329 10.2057 -10.5567 0.0015593 -0.00248883 -0.000788628 7.87605e-005 4.10553e-005 1.24965e-005 -3.97569e-016 -7.95139e-016 3.18055e-015 -1.98785e-016 -3.97569e-016 3.18055e-015 -1.98785e-016 0 3.18055e-015 -3.97569e-016 -7.95139e-016 3.18055e-015 0.0129473 0.00231697 -8.70038e-005 9.93923e-017 -7.95139e-016 1.59028e-015 -3.97569e-016 -7.95139e-016 3.18055e-015 0.0163314 0.00303369 -0.000872333 3.97569e-016 7.95139e-016 -3.18055e-015 -3.97569e-016 -7.95139e-016 3.18055e-015 0.0145763 0.00367772 -0.00326275 9.93923e-017 -3.97569e-016 -0 -3.97569e-016 -7.95139e-016 3.18055e-015 -1.98785e-016 -3.97569e-016 3.18055e-015 -1.98785e-016 0 3.18055e-015 3.42485 1.36937 -0.0640303 0.000136572 0.69354 0.00145564 -3.42573 -2.06297 -0.0607933 -3.19502e-024 0 -1.48106e-024 -3.42498 1.36123 0.0639712 -6.769e-005 0.712612 -0.0012277 3.42582 -2.07388 0.0612819 2.55305e-023 0 -2.31416e-026 
-0.705162 63.9273 0.933818 -1.93939e-007 2.9991 2.10055e-006 -0.394979 0.814637 3.05904 -0.832999 1.60702 6.12451 -0.832999 1.60702 6.12452 13.997 -3.54024e-005 -6.50928e-005 -3.06422e-007 -7.72562e-007 1.63383e-006 26.2496 11.1117 -87.3038 53.2171 -0.838309 32.2536 4.13549 -52.7183 70.7045 -19.6283 14.7274 -30.4916 9.8229e-006 1.92571e-006 2.85341e-006 -3.18055e-015 4.77083e-015 -0 -8.82781e-032 1.59028e-015 3.18055e-015 9.8229e-006 1.92571e-006 2.85341e-006 -0.0128127 0.00232769 8.04561e-005 6.08944e-006 -2.45213e-006 4.08108e-007 9.8229e-006 1.92571e-006 2.85341e-006 -0.0160124 0.00300553 0.000847161 3.18055e-015 -4.77083e-015 -0 9.8229e-006 1.92571e-006 2.85341e-006 -0.0125981 0.00312035 0.00282095 6.42134e-007 -5.21549e-006 -2.11052e-006 9.8229e-006 1.92571e-006 2.85341e-006 -3.18055e-015 4.77083e-015 -0 -8.82781e-032 1.59028e-015 3.18055e-015 -2.16519 -18.151 13.5584 -11.1455 -15.2873 -9.94897 -6.83353 -42.3978 -1.89256 62.271 26.6711 2.71922 1.11128e-006 -2.11237e-006 1.20822e-006 7.57124e-006 -3.54662e-005 5.80639e-006 1.11128e-006 3.92591e-006 1.20822e-006 1.11128e-006 -2.11237e-006 1.20822e-006 0.0128854 0.002307 -8.49675e-005 2.39726e-006 -1.78838e-006 1.02332e-007 1.11128e-006 -2.11237e-006 1.20822e-006 0.0163794 0.00301943 -0.000860469 7.95138e-016 6.03995e-006 6.36111e-015 1.11128e-006 -2.11237e-006 1.20822e-006 0.0145829 0.00365422 -0.00325847 -6.28226e-007 1.04903e-005 3.03598e-006 1.11128e-006 -2.11237e-006 1.20822e-006 7.57124e-006 -3.54662e-005 5.80639e-006 1.11128e-006 3.92591e-006 1.20822e-006 -16.9377 -18.1653 -11.4269 2.32163 21.4946 -0.555401 19.2454 -3.7708 -7.51766 5.43992e-008 1.86597e-008 1.61505e-006 7.57511 -25.5058 14.1047 0.999463 40.2465 -0.856598 -10.9242 -16.6047 3.62386 -2.18663e-015 4.50204e-011 -0 
-0.705937 63.669 1.39665 1.42412e-007 1.94763 -2.24058e-006 -0.367567 1.03484 3.05967 -0.790052 2.04855 6.12739 -0.790052 2.04855 6.1274 14.0797 -0.203734 -0.243876 0.0143004 -0.165671 -0.118041 26.2496 11.1118 -87.3037 53.2169 -0.83782 32.2536 4.13553 -52.7188 70.7046 -19.6432 14.7256 -30.49 1.05457e-005 1.5271e-005 4.31396e-006 2.86464e-006 -1.80277e-006 -1.57766e-007 -8.63921e-007 2.91239e-006 -2.60668e-006 1.05457e-005 1.5271e-005 4.31396e-006 -0.0128209 0.00232508 8.6712e-005 3.18055e-015 1.90833e-014 3.18055e-015 1.05457e-005 1.5271e-005 4.31396e-006 -0.0160285 0.00299482 0.000847474 -1.8635e-006 -7.28799e-007 -1.22459e-006 1.05457e-005 1.5271e-005 4.31396e-006 -0.0125939 0.00311138 0.00281786 6.45756e-006 1.99712e-005 1.13784e-006 1.05457e-005 1.5271e-005 4.31396e-006 2.86464e-006 -1.80277e-006 -1.57766e-007 -8.63921e-007 2.91239e-006 -2.60668e-006 -1.80574 -18.5002 14.1638 -11.7538 -15.2236 -10.1889 -7.14476 -42.2362 -2.11727 62.6834 26.6978 2.32515 -1.59028e-015 -6.36111e-015 3.18055e-015 1.11018e-006 -9.1894e-006 1.20951e-006 -3.18055e-015 -7.95139e-016 -6.36111e-015 -1.59028e-015 -6.36111e-015 3.18055e-015 0.0129921 0.00233274 -9.25807e-005 -1.59028e-015 1.59028e-015 -0 -1.59028e-015 -6.36111e-015 3.18055e-015 0.0163499 0.00303469 -0.000865769 3.18055e-015 -5.36719e-015 3.18055e-015 -1.59028e-015 -6.36111e-015 3.18055e-015 0.0145767 0.00368857 -0.00325936 0 2.38542e-015 -0 -1.59028e-015 -6.36111e-015 3.18055e-015 1.11018e-006 -9.1894e-006 1.20951e-006 -3.18055e-015 -7.95139e-016 -6.36111e-015 -17.0502 -17.5422 -11.4601 2.12725 22.8354 -0.481769 19.403 -4.54404 -6.91193 -3.67752e-015 1.98785e-016 -3.18055e-015 7.59762 -24.6007 14.0777 1.22835 41.1178 -1.00631 -11.1075 -17.2982 3.37433 -5.43831e-008 -9.51063e-008 -1.61536e-006 
-0.706667 63.4134 1.85855 -2.7607e-007 0.894728 -1.0039e-007 -0.340081 1.25536 3.06001 -0.746987 2.49074 6.12958 -0.74699 2.49075 6.12961 14.1617 -0.407868 -0.487511 0.028258 -0.331416 -0.236084 26.2496 11.1119 -87.3036 53.2169 -0.837864 32.2536 4.13552 -52.7188 70.7046 -19.6581 14.7239 -30.4883 -3.18055e-015 -9.54166e-015 -0 3.18055e-015 -7.95139e-015 -3.18055e-015 -3.90762e-006 -4.96389e-007 -2.81512e-006 -3.18055e-015 -9.54166e-015 -0 -0.0128174 0.00232439 8.42588e-005 -1.8607e-006 4.40496e-006 -1.22624e-006 -3.18055e-015 -9.54166e-015 -0 -0.0160205 0.00298144 0.000853726 1.42388e-007 4.06085e-006 -3.98928e-006 -3.18055e-015 -9.54166e-015 -0 -0.0125485 0.00311725 0.00281825 -1.04523e-006 3.13242e-006 -2.97044e-006 -3.18055e-015 -9.54166e-015 -0 3.18055e-015 -7.95139e-015 -3.18055e-015 -3.90762e-006 -4.96389e-007 -2.81512e-006 -1.44144 -18.8459 14.7732 -12.3619 -15.1574 -10.4282 -7.45439 -42.0736 -2.34026 63.096 26.7219 1.93068 -1.28797e-006 -1.00835e-006 1.10354e-006 1.78755e-007 -5.51552e-007 -2.31419e-006 5.25226e-006 -1.7114e-005 -5.0285e-007 -1.28797e-006 -1.00835e-006 1.10354e-006 0.0129296 0.00230648 -8.53519e-005 -1.46177e-007 -8.45399e-006 -3.27804e-006 -1.28797e-006 -1.00835e-006 1.10354e-006 0.0163858 0.00302832 -0.000883793 -5.43313e-006 1.09616e-005 2.81686e-006 -1.28797e-006 -1.00835e-006 1.10354e-006 0.0145007 0.0036419 -0.00324094 7.95139e-016 1.01652e-006 -3.18055e-015 -1.28797e-006 -1.00835e-006 1.10354e-006 1.78755e-007 -5.51552e-007 -2.31419e-006 5.25226e-006 -1.7114e-005 -5.0285e-007 -17.1615 -16.9144 -11.4913 1.92899 24.1693 -0.402979 19.5678 -5.31184 -6.30407 1.39149e-015 -2.07811e-011 -6.36111e-015 7.62102 -23.6934 14.0508 1.46291 41.9876 -1.16257 -11.2941 -17.9907 3.12168 -4.96962e-016 2.25107e-007 3.18055e-015 
-0.707346 63.1602 2.31945 1.50817e-008 -0.15943 -7.2011e-008 -0.312531 1.47618 3.0601 -0.703822 2.93354 6.13123 -0.703822 2.93354 6.13124 14.2428 -0.612615 -0.731211 0.0418817 -0.497227 -0.354104 26.2496 11.1118 -87.3037 53.217 -0.838083 32.2536 4.13553 -52.7185 70.7045 -19.673 14.7221 -30.4867 3.18055e-015 -1.59028e-015 3.18055e-015 1.76556e-031 -3.18055e-015 3.18055e-015 -6.36111e-015 -4.77083e-015 -3.18055e-015 3.18055e-015 -1.59028e-015 3.18055e-015 -0.012825 0.002315 8.38429e-005 3.18055e-015 3.18055e-015 -3.18055e-015 3.18055e-015 -1.59028e-015 3.18055e-015 -0.0160505 0.00300411 0.00085961 9.54166e-015 7.95139e-015 -9.54166e-015 3.18055e-015 -1.59028e-015 3.18055e-015 -0.0126311 0.00311331 0.0028241 8.55253e-007 -3.85816e-006 2.60891e-006 3.18055e-015 -1.59028e-015 3.18055e-015 1.76556e-031 -3.18055e-015 3.18055e-015 -6.36111e-015 -4.77083e-015 -3.18055e-015 -1.07237 -19.1881 15.3863 -12.9693 -15.087 -10.6666 -7.76251 -41.9101 -2.56158 63.5091 26.7436 1.53593 -2.3162e-006 -7.30584e-006 -6.33622e-006 -1.59028e-015 5.38863e-006 -6.36111e-015 2.1727e-006 -1.3269e-005 3.05854e-006 -2.3162e-006 -7.30584e-006 -6.33622e-006 0.0129253 0.00231853 -8.52025e-005 2.49844e-006 -1.03067e-005 4.02214e-006 -2.3162e-006 -7.30584e-006 -6.33622e-006 0.0163502 0.0030464 -0.000878567 3.18055e-015 1.19271e-015 3.18055e-015 -2.3162e-006 -7.30584e-006 -6.33622e-006 0.0145073 0.00364433 -0.00323796 -1.10839e-006 2.13557e-006 -1.21168e-006 -2.3162e-006 -7.30584e-006 -6.33622e-006 -1.59028e-015 5.38863e-006 -6.36111e-015 2.1727e-006 -1.3269e-005 3.05854e-006 -17.2701 -16.2823 -11.5203 1.72327 25.496 -0.3177 19.7412 -6.0741 -5.69403 -7.92568e-007 1.77212e-007 1.60592e-006 7.64528 -22.784 14.0243 1.70339 42.8554 -1.32563 -11.4839 -18.682 2.86587 7.91834e-007 1.77414e-007 -1.60505e-006 
